<?xml version="1.0" encoding="UTF-8" standalone="no"?>
<!DOCTYPE svg PUBLIC "-//W3C//DTD SVG 1.1//EN"
 "http://www.w3.org/Graphics/SVG/1.1/DTD/svg11.dtd">
<!-- Generated by graphviz version 2.40.1 (20161225.0304)
 -->
<!-- Title: G Pages: 1 -->
<svg width="1468pt" height="751pt"
 viewBox="0.00 0.00 1467.62 751.40" xmlns="http://www.w3.org/2000/svg" xmlns:xlink="http://www.w3.org/1999/xlink">
<g id="graph0" class="graph" transform="scale(1 1) rotate(0) translate(4 747.4)">
<title>G</title>
<polygon fill="#ffffff" stroke="transparent" points="-4,4 -4,-747.4 1463.6242,-747.4 1463.6242,4 -4,4"/>
<!-- 112576777352 -->
<g id="node1" class="node">
<title>112576777352</title>
<polygon fill="none" stroke="#000000" points="542.3443,-693.3 542.3443,-742.9 849.6747,-742.9 849.6747,-693.3 542.3443,-693.3"/>
<text text-anchor="middle" x="629.8524" y="-713.9" font-family="Times,serif" font-size="14.00" fill="#000000">statement_input: InputLayer</text>
<polyline fill="none" stroke="#000000" points="717.3605,-693.3 717.3605,-742.9 "/>
<text text-anchor="middle" x="745.1964" y="-726.3" font-family="Times,serif" font-size="14.00" fill="#000000">input:</text>
<polyline fill="none" stroke="#000000" points="717.3605,-718.1 773.0323,-718.1 "/>
<text text-anchor="middle" x="745.1964" y="-701.5" font-family="Times,serif" font-size="14.00" fill="#000000">output:</text>
<polyline fill="none" stroke="#000000" points="773.0323,-693.3 773.0323,-742.9 "/>
<text text-anchor="middle" x="811.3535" y="-726.3" font-family="Times,serif" font-size="14.00" fill="#000000">(None, 25)</text>
<polyline fill="none" stroke="#000000" points="773.0323,-718.1 849.6747,-718.1 "/>
<text text-anchor="middle" x="811.3535" y="-701.5" font-family="Times,serif" font-size="14.00" fill="#000000">(None, 25)</text>
</g>
<!-- 112576775896 -->
<g id="node2" class="node">
<title>112576775896</title>
<polygon fill="none" stroke="#000000" points="533.7777,-606.7 533.7777,-656.3 858.2413,-656.3 858.2413,-606.7 533.7777,-606.7"/>
<text text-anchor="middle" x="615.8524" y="-627.3" font-family="Times,serif" font-size="14.00" fill="#000000">embedding_1: Embedding</text>
<polyline fill="none" stroke="#000000" points="697.9271,-606.7 697.9271,-656.3 "/>
<text text-anchor="middle" x="725.763" y="-639.7" font-family="Times,serif" font-size="14.00" fill="#000000">input:</text>
<polyline fill="none" stroke="#000000" points="697.9271,-631.5 753.5989,-631.5 "/>
<text text-anchor="middle" x="725.763" y="-614.9" font-family="Times,serif" font-size="14.00" fill="#000000">output:</text>
<polyline fill="none" stroke="#000000" points="753.5989,-606.7 753.5989,-656.3 "/>
<text text-anchor="middle" x="805.9201" y="-639.7" font-family="Times,serif" font-size="14.00" fill="#000000">(None, 25)</text>
<polyline fill="none" stroke="#000000" points="753.5989,-631.5 858.2413,-631.5 "/>
<text text-anchor="middle" x="805.9201" y="-614.9" font-family="Times,serif" font-size="14.00" fill="#000000">(None, 25, 100)</text>
</g>
<!-- 112576777352&#45;&gt;112576775896 -->
<g id="edge1" class="edge">
<title>112576777352&#45;&gt;112576775896</title>
<path fill="none" stroke="#000000" d="M696.0095,-693.0517C696.0095,-684.7937 696.0095,-675.4517 696.0095,-666.5864"/>
<polygon fill="#000000" stroke="#000000" points="699.5096,-666.492 696.0095,-656.492 692.5096,-666.492 699.5096,-666.492"/>
</g>
<!-- 112576776008 -->
<g id="node3" class="node">
<title>112576776008</title>
<polygon fill="none" stroke="#000000" points="165.8282,-520.1 165.8282,-569.7 452.1908,-569.7 452.1908,-520.1 165.8282,-520.1"/>
<text text-anchor="middle" x="228.8524" y="-540.7" font-family="Times,serif" font-size="14.00" fill="#000000">conv1d_1: Conv1D</text>
<polyline fill="none" stroke="#000000" points="291.8766,-520.1 291.8766,-569.7 "/>
<text text-anchor="middle" x="319.7125" y="-553.1" font-family="Times,serif" font-size="14.00" fill="#000000">input:</text>
<polyline fill="none" stroke="#000000" points="291.8766,-544.9 347.5484,-544.9 "/>
<text text-anchor="middle" x="319.7125" y="-528.3" font-family="Times,serif" font-size="14.00" fill="#000000">output:</text>
<polyline fill="none" stroke="#000000" points="347.5484,-520.1 347.5484,-569.7 "/>
<text text-anchor="middle" x="399.8696" y="-553.1" font-family="Times,serif" font-size="14.00" fill="#000000">(None, 25, 100)</text>
<polyline fill="none" stroke="#000000" points="347.5484,-544.9 452.1908,-544.9 "/>
<text text-anchor="middle" x="399.8696" y="-528.3" font-family="Times,serif" font-size="14.00" fill="#000000">(None, 24, 128)</text>
</g>
<!-- 112576775896&#45;&gt;112576776008 -->
<g id="edge2" class="edge">
<title>112576775896&#45;&gt;112576776008</title>
<path fill="none" stroke="#000000" d="M585.1108,-606.6839C536.5311,-595.8131 479.4002,-583.0288 429.7499,-571.9184"/>
<polygon fill="#000000" stroke="#000000" points="430.4474,-568.488 419.9244,-569.7197 428.9187,-575.319 430.4474,-568.488"/>
</g>
<!-- 112580586912 -->
<g id="node4" class="node">
<title>112580586912</title>
<polygon fill="none" stroke="#000000" points="552.8282,-520.1 552.8282,-569.7 839.1908,-569.7 839.1908,-520.1 552.8282,-520.1"/>
<text text-anchor="middle" x="615.8524" y="-540.7" font-family="Times,serif" font-size="14.00" fill="#000000">conv1d_2: Conv1D</text>
<polyline fill="none" stroke="#000000" points="678.8766,-520.1 678.8766,-569.7 "/>
<text text-anchor="middle" x="706.7125" y="-553.1" font-family="Times,serif" font-size="14.00" fill="#000000">input:</text>
<polyline fill="none" stroke="#000000" points="678.8766,-544.9 734.5484,-544.9 "/>
<text text-anchor="middle" x="706.7125" y="-528.3" font-family="Times,serif" font-size="14.00" fill="#000000">output:</text>
<polyline fill="none" stroke="#000000" points="734.5484,-520.1 734.5484,-569.7 "/>
<text text-anchor="middle" x="786.8696" y="-553.1" font-family="Times,serif" font-size="14.00" fill="#000000">(None, 25, 100)</text>
<polyline fill="none" stroke="#000000" points="734.5484,-544.9 839.1908,-544.9 "/>
<text text-anchor="middle" x="786.8696" y="-528.3" font-family="Times,serif" font-size="14.00" fill="#000000">(None, 21, 128)</text>
</g>
<!-- 112576775896&#45;&gt;112580586912 -->
<g id="edge3" class="edge">
<title>112576775896&#45;&gt;112580586912</title>
<path fill="none" stroke="#000000" d="M696.0095,-606.4517C696.0095,-598.1937 696.0095,-588.8517 696.0095,-579.9864"/>
<polygon fill="#000000" stroke="#000000" points="699.5096,-579.892 696.0095,-569.892 692.5096,-579.892 699.5096,-579.892"/>
</g>
<!-- 112583156288 -->
<g id="node5" class="node">
<title>112583156288</title>
<polygon fill="none" stroke="#000000" points="939.8282,-520.1 939.8282,-569.7 1226.1908,-569.7 1226.1908,-520.1 939.8282,-520.1"/>
<text text-anchor="middle" x="1002.8524" y="-540.7" font-family="Times,serif" font-size="14.00" fill="#000000">conv1d_3: Conv1D</text>
<polyline fill="none" stroke="#000000" points="1065.8766,-520.1 1065.8766,-569.7 "/>
<text text-anchor="middle" x="1093.7125" y="-553.1" font-family="Times,serif" font-size="14.00" fill="#000000">input:</text>
<polyline fill="none" stroke="#000000" points="1065.8766,-544.9 1121.5484,-544.9 "/>
<text text-anchor="middle" x="1093.7125" y="-528.3" font-family="Times,serif" font-size="14.00" fill="#000000">output:</text>
<polyline fill="none" stroke="#000000" points="1121.5484,-520.1 1121.5484,-569.7 "/>
<text text-anchor="middle" x="1173.8696" y="-553.1" font-family="Times,serif" font-size="14.00" fill="#000000">(None, 25, 100)</text>
<polyline fill="none" stroke="#000000" points="1121.5484,-544.9 1226.1908,-544.9 "/>
<text text-anchor="middle" x="1173.8696" y="-528.3" font-family="Times,serif" font-size="14.00" fill="#000000">(None, 18, 128)</text>
</g>
<!-- 112576775896&#45;&gt;112583156288 -->
<g id="edge4" class="edge">
<title>112576775896&#45;&gt;112583156288</title>
<path fill="none" stroke="#000000" d="M806.9082,-606.6839C855.4879,-595.8131 912.6188,-583.0288 962.2691,-571.9184"/>
<polygon fill="#000000" stroke="#000000" points="963.1003,-575.319 972.0946,-569.7197 961.5716,-568.488 963.1003,-575.319"/>
</g>
<!-- 112580585512 -->
<g id="node6" class="node">
<title>112580585512</title>
<polygon fill="none" stroke="#000000" points="0,-433.5 0,-483.1 452.019,-483.1 452.019,-433.5 0,-433.5"/>
<text text-anchor="middle" x="145.8524" y="-454.1" font-family="Times,serif" font-size="14.00" fill="#000000">global_max_pooling1d_1: GlobalMaxPooling1D</text>
<polyline fill="none" stroke="#000000" points="291.7048,-433.5 291.7048,-483.1 "/>
<text text-anchor="middle" x="319.5407" y="-466.5" font-family="Times,serif" font-size="14.00" fill="#000000">input:</text>
<polyline fill="none" stroke="#000000" points="291.7048,-458.3 347.3766,-458.3 "/>
<text text-anchor="middle" x="319.5407" y="-441.7" font-family="Times,serif" font-size="14.00" fill="#000000">output:</text>
<polyline fill="none" stroke="#000000" points="347.3766,-433.5 347.3766,-483.1 "/>
<text text-anchor="middle" x="399.6978" y="-466.5" font-family="Times,serif" font-size="14.00" fill="#000000">(None, 24, 128)</text>
<polyline fill="none" stroke="#000000" points="347.3766,-458.3 452.019,-458.3 "/>
<text text-anchor="middle" x="399.6978" y="-441.7" font-family="Times,serif" font-size="14.00" fill="#000000">(None, 128)</text>
</g>
<!-- 112576776008&#45;&gt;112580585512 -->
<g id="edge5" class="edge">
<title>112576776008&#45;&gt;112580585512</title>
<path fill="none" stroke="#000000" d="M285.0025,-519.8517C276.2275,-510.6961 266.1753,-500.208 256.8848,-490.5145"/>
<polygon fill="#000000" stroke="#000000" points="259.4089,-488.0898 249.9626,-483.292 254.3552,-492.9334 259.4089,-488.0898"/>
</g>
<!-- 112583088952 -->
<g id="node7" class="node">
<title>112583088952</title>
<polygon fill="none" stroke="#000000" points="470,-433.5 470,-483.1 922.019,-483.1 922.019,-433.5 470,-433.5"/>
<text text-anchor="middle" x="615.8524" y="-454.1" font-family="Times,serif" font-size="14.00" fill="#000000">global_max_pooling1d_2: GlobalMaxPooling1D</text>
<polyline fill="none" stroke="#000000" points="761.7048,-433.5 761.7048,-483.1 "/>
<text text-anchor="middle" x="789.5407" y="-466.5" font-family="Times,serif" font-size="14.00" fill="#000000">input:</text>
<polyline fill="none" stroke="#000000" points="761.7048,-458.3 817.3766,-458.3 "/>
<text text-anchor="middle" x="789.5407" y="-441.7" font-family="Times,serif" font-size="14.00" fill="#000000">output:</text>
<polyline fill="none" stroke="#000000" points="817.3766,-433.5 817.3766,-483.1 "/>
<text text-anchor="middle" x="869.6978" y="-466.5" font-family="Times,serif" font-size="14.00" fill="#000000">(None, 21, 128)</text>
<polyline fill="none" stroke="#000000" points="817.3766,-458.3 922.019,-458.3 "/>
<text text-anchor="middle" x="869.6978" y="-441.7" font-family="Times,serif" font-size="14.00" fill="#000000">(None, 128)</text>
</g>
<!-- 112580586912&#45;&gt;112583088952 -->
<g id="edge6" class="edge">
<title>112580586912&#45;&gt;112583088952</title>
<path fill="none" stroke="#000000" d="M696.0095,-519.8517C696.0095,-511.5937 696.0095,-502.2517 696.0095,-493.3864"/>
<polygon fill="#000000" stroke="#000000" points="699.5096,-493.292 696.0095,-483.292 692.5096,-493.292 699.5096,-493.292"/>
</g>
<!-- 112582599960 -->
<g id="node8" class="node">
<title>112582599960</title>
<polygon fill="none" stroke="#000000" points="940,-433.5 940,-483.1 1392.019,-483.1 1392.019,-433.5 940,-433.5"/>
<text text-anchor="middle" x="1085.8524" y="-454.1" font-family="Times,serif" font-size="14.00" fill="#000000">global_max_pooling1d_3: GlobalMaxPooling1D</text>
<polyline fill="none" stroke="#000000" points="1231.7048,-433.5 1231.7048,-483.1 "/>
<text text-anchor="middle" x="1259.5407" y="-466.5" font-family="Times,serif" font-size="14.00" fill="#000000">input:</text>
<polyline fill="none" stroke="#000000" points="1231.7048,-458.3 1287.3766,-458.3 "/>
<text text-anchor="middle" x="1259.5407" y="-441.7" font-family="Times,serif" font-size="14.00" fill="#000000">output:</text>
<polyline fill="none" stroke="#000000" points="1287.3766,-433.5 1287.3766,-483.1 "/>
<text text-anchor="middle" x="1339.6978" y="-466.5" font-family="Times,serif" font-size="14.00" fill="#000000">(None, 18, 128)</text>
<polyline fill="none" stroke="#000000" points="1287.3766,-458.3 1392.019,-458.3 "/>
<text text-anchor="middle" x="1339.6978" y="-441.7" font-family="Times,serif" font-size="14.00" fill="#000000">(None, 128)</text>
</g>
<!-- 112583156288&#45;&gt;112582599960 -->
<g id="edge7" class="edge">
<title>112583156288&#45;&gt;112582599960</title>
<path fill="none" stroke="#000000" d="M1107.0165,-519.8517C1115.7915,-510.6961 1125.8437,-500.208 1135.1342,-490.5145"/>
<polygon fill="#000000" stroke="#000000" points="1137.6638,-492.9334 1142.0564,-483.292 1132.6101,-488.0898 1137.6638,-492.9334"/>
</g>
<!-- 112576775672 -->
<g id="node9" class="node">
<title>112576775672</title>
<polygon fill="none" stroke="#000000" points="460.7243,-346.9 460.7243,-396.5 931.2947,-396.5 931.2947,-346.9 460.7243,-346.9"/>
<text text-anchor="middle" x="547.0494" y="-367.5" font-family="Times,serif" font-size="14.00" fill="#000000">concatenate_1: Concatenate</text>
<polyline fill="none" stroke="#000000" points="633.3745,-346.9 633.3745,-396.5 "/>
<text text-anchor="middle" x="661.2104" y="-379.9" font-family="Times,serif" font-size="14.00" fill="#000000">input:</text>
<polyline fill="none" stroke="#000000" points="633.3745,-371.7 689.0463,-371.7 "/>
<text text-anchor="middle" x="661.2104" y="-355.1" font-family="Times,serif" font-size="14.00" fill="#000000">output:</text>
<polyline fill="none" stroke="#000000" points="689.0463,-346.9 689.0463,-396.5 "/>
<text text-anchor="middle" x="810.1705" y="-379.9" font-family="Times,serif" font-size="14.00" fill="#000000">[(None, 128), (None, 128), (None, 128)]</text>
<polyline fill="none" stroke="#000000" points="689.0463,-371.7 931.2947,-371.7 "/>
<text text-anchor="middle" x="809.8675" y="-355.1" font-family="Times,serif" font-size="14.00" fill="#000000">(None, 384)</text>
</g>
<!-- 112580585512&#45;&gt;112576775672 -->
<g id="edge8" class="edge">
<title>112580585512&#45;&gt;112576775672</title>
<path fill="none" stroke="#000000" d="M360.6926,-433.4839C420.3058,-422.4999 490.5217,-409.5622 551.2552,-398.3718"/>
<polygon fill="#000000" stroke="#000000" points="552.1065,-401.7739 561.3067,-396.5197 550.838,-394.8898 552.1065,-401.7739"/>
</g>
<!-- 112583088952&#45;&gt;112576775672 -->
<g id="edge9" class="edge">
<title>112583088952&#45;&gt;112576775672</title>
<path fill="none" stroke="#000000" d="M696.0095,-433.2517C696.0095,-424.9937 696.0095,-415.6517 696.0095,-406.7864"/>
<polygon fill="#000000" stroke="#000000" points="699.5096,-406.692 696.0095,-396.692 692.5096,-406.692 699.5096,-406.692"/>
</g>
<!-- 112582599960&#45;&gt;112576775672 -->
<g id="edge10" class="edge">
<title>112582599960&#45;&gt;112576775672</title>
<path fill="none" stroke="#000000" d="M1031.3264,-433.4839C971.7132,-422.4999 901.4973,-409.5622 840.7638,-398.3718"/>
<polygon fill="#000000" stroke="#000000" points="841.181,-394.8898 830.7123,-396.5197 839.9125,-401.7739 841.181,-394.8898"/>
</g>
<!-- 112582600240 -->
<g id="node10" class="node">
<title>112582600240</title>
<polygon fill="none" stroke="#000000" points="562.5526,-260.3 562.5526,-309.9 829.4664,-309.9 829.4664,-260.3 562.5526,-260.3"/>
<text text-anchor="middle" x="626.3524" y="-280.9" font-family="Times,serif" font-size="14.00" fill="#000000">dropout_1: Dropout</text>
<polyline fill="none" stroke="#000000" points="690.1522,-260.3 690.1522,-309.9 "/>
<text text-anchor="middle" x="717.9881" y="-293.3" font-family="Times,serif" font-size="14.00" fill="#000000">input:</text>
<polyline fill="none" stroke="#000000" points="690.1522,-285.1 745.824,-285.1 "/>
<text text-anchor="middle" x="717.9881" y="-268.5" font-family="Times,serif" font-size="14.00" fill="#000000">output:</text>
<polyline fill="none" stroke="#000000" points="745.824,-260.3 745.824,-309.9 "/>
<text text-anchor="middle" x="787.6452" y="-293.3" font-family="Times,serif" font-size="14.00" fill="#000000">(None, 384)</text>
<polyline fill="none" stroke="#000000" points="745.824,-285.1 829.4664,-285.1 "/>
<text text-anchor="middle" x="787.6452" y="-268.5" font-family="Times,serif" font-size="14.00" fill="#000000">(None, 384)</text>
</g>
<!-- 112576775672&#45;&gt;112582600240 -->
<g id="edge11" class="edge">
<title>112576775672&#45;&gt;112582600240</title>
<path fill="none" stroke="#000000" d="M696.0095,-346.6517C696.0095,-338.3937 696.0095,-329.0517 696.0095,-320.1864"/>
<polygon fill="#000000" stroke="#000000" points="699.5096,-320.092 696.0095,-310.092 692.5096,-320.092 699.5096,-320.092"/>
</g>
<!-- 112582601136 -->
<g id="node13" class="node">
<title>112582601136</title>
<polygon fill="none" stroke="#000000" points="597.23,-173.7 597.23,-223.3 840.789,-223.3 840.789,-173.7 597.23,-173.7"/>
<text text-anchor="middle" x="649.3524" y="-194.3" font-family="Times,serif" font-size="14.00" fill="#000000">dense_1: Dense</text>
<polyline fill="none" stroke="#000000" points="701.4748,-173.7 701.4748,-223.3 "/>
<text text-anchor="middle" x="729.3107" y="-206.7" font-family="Times,serif" font-size="14.00" fill="#000000">input:</text>
<polyline fill="none" stroke="#000000" points="701.4748,-198.5 757.1466,-198.5 "/>
<text text-anchor="middle" x="729.3107" y="-181.9" font-family="Times,serif" font-size="14.00" fill="#000000">output:</text>
<polyline fill="none" stroke="#000000" points="757.1466,-173.7 757.1466,-223.3 "/>
<text text-anchor="middle" x="798.9678" y="-206.7" font-family="Times,serif" font-size="14.00" fill="#000000">(None, 384)</text>
<polyline fill="none" stroke="#000000" points="757.1466,-198.5 840.789,-198.5 "/>
<text text-anchor="middle" x="798.9678" y="-181.9" font-family="Times,serif" font-size="14.00" fill="#000000">(None, 128)</text>
</g>
<!-- 112582600240&#45;&gt;112582601136 -->
<g id="edge12" class="edge">
<title>112582600240&#45;&gt;112582601136</title>
<path fill="none" stroke="#000000" d="M702.6621,-260.0517C704.8791,-251.704 707.3904,-242.2484 709.7677,-233.2975"/>
<polygon fill="#000000" stroke="#000000" points="713.1877,-234.0554 712.3719,-223.492 706.4222,-232.2585 713.1877,-234.0554"/>
</g>
<!-- 112582809584 -->
<g id="node11" class="node">
<title>112582809584</title>
<polygon fill="none" stroke="#000000" points="847.4046,-260.3 847.4046,-309.9 1158.6144,-309.9 1158.6144,-260.3 847.4046,-260.3"/>
<text text-anchor="middle" x="933.3524" y="-280.9" font-family="Times,serif" font-size="14.00" fill="#000000">metadata_input: InputLayer</text>
<polyline fill="none" stroke="#000000" points="1019.3002,-260.3 1019.3002,-309.9 "/>
<text text-anchor="middle" x="1047.1361" y="-293.3" font-family="Times,serif" font-size="14.00" fill="#000000">input:</text>
<polyline fill="none" stroke="#000000" points="1019.3002,-285.1 1074.972,-285.1 "/>
<text text-anchor="middle" x="1047.1361" y="-268.5" font-family="Times,serif" font-size="14.00" fill="#000000">output:</text>
<polyline fill="none" stroke="#000000" points="1074.972,-260.3 1074.972,-309.9 "/>
<text text-anchor="middle" x="1116.7932" y="-293.3" font-family="Times,serif" font-size="14.00" fill="#000000">(None, 115)</text>
<polyline fill="none" stroke="#000000" points="1074.972,-285.1 1158.6144,-285.1 "/>
<text text-anchor="middle" x="1116.7932" y="-268.5" font-family="Times,serif" font-size="14.00" fill="#000000">(None, 115)</text>
</g>
<!-- 112582735296 -->
<g id="node14" class="node">
<title>112582735296</title>
<polygon fill="none" stroke="#000000" points="881.23,-173.7 881.23,-223.3 1124.789,-223.3 1124.789,-173.7 881.23,-173.7"/>
<text text-anchor="middle" x="933.3524" y="-194.3" font-family="Times,serif" font-size="14.00" fill="#000000">dense_2: Dense</text>
<polyline fill="none" stroke="#000000" points="985.4748,-173.7 985.4748,-223.3 "/>
<text text-anchor="middle" x="1013.3107" y="-206.7" font-family="Times,serif" font-size="14.00" fill="#000000">input:</text>
<polyline fill="none" stroke="#000000" points="985.4748,-198.5 1041.1466,-198.5 "/>
<text text-anchor="middle" x="1013.3107" y="-181.9" font-family="Times,serif" font-size="14.00" fill="#000000">output:</text>
<polyline fill="none" stroke="#000000" points="1041.1466,-173.7 1041.1466,-223.3 "/>
<text text-anchor="middle" x="1082.9678" y="-206.7" font-family="Times,serif" font-size="14.00" fill="#000000">(None, 115)</text>
<polyline fill="none" stroke="#000000" points="1041.1466,-198.5 1124.789,-198.5 "/>
<text text-anchor="middle" x="1082.9678" y="-181.9" font-family="Times,serif" font-size="14.00" fill="#000000">(None, 64)</text>
</g>
<!-- 112582809584&#45;&gt;112582735296 -->
<g id="edge13" class="edge">
<title>112582809584&#45;&gt;112582735296</title>
<path fill="none" stroke="#000000" d="M1003.0095,-260.0517C1003.0095,-251.7937 1003.0095,-242.4517 1003.0095,-233.5864"/>
<polygon fill="#000000" stroke="#000000" points="1006.5096,-233.492 1003.0095,-223.492 999.5096,-233.492 1006.5096,-233.492"/>
</g>
<!-- 112582735968 -->
<g id="node12" class="node">
<title>112582735968</title>
<polygon fill="none" stroke="#000000" points="1176.3948,-260.3 1176.3948,-309.9 1459.6242,-309.9 1459.6242,-260.3 1176.3948,-260.3"/>
<text text-anchor="middle" x="1255.3524" y="-280.9" font-family="Times,serif" font-size="14.00" fill="#000000">counts_input: InputLayer</text>
<polyline fill="none" stroke="#000000" points="1334.31,-260.3 1334.31,-309.9 "/>
<text text-anchor="middle" x="1362.1459" y="-293.3" font-family="Times,serif" font-size="14.00" fill="#000000">input:</text>
<polyline fill="none" stroke="#000000" points="1334.31,-285.1 1389.9818,-285.1 "/>
<text text-anchor="middle" x="1362.1459" y="-268.5" font-family="Times,serif" font-size="14.00" fill="#000000">output:</text>
<polyline fill="none" stroke="#000000" points="1389.9818,-260.3 1389.9818,-309.9 "/>
<text text-anchor="middle" x="1424.803" y="-293.3" font-family="Times,serif" font-size="14.00" fill="#000000">(None, 5)</text>
<polyline fill="none" stroke="#000000" points="1389.9818,-285.1 1459.6242,-285.1 "/>
<text text-anchor="middle" x="1424.803" y="-268.5" font-family="Times,serif" font-size="14.00" fill="#000000">(None, 5)</text>
</g>
<!-- 112581135272 -->
<g id="node15" class="node">
<title>112581135272</title>
<polygon fill="none" stroke="#000000" points="1170.73,-173.7 1170.73,-223.3 1407.289,-223.3 1407.289,-173.7 1170.73,-173.7"/>
<text text-anchor="middle" x="1222.8524" y="-194.3" font-family="Times,serif" font-size="14.00" fill="#000000">dense_3: Dense</text>
<polyline fill="none" stroke="#000000" points="1274.9748,-173.7 1274.9748,-223.3 "/>
<text text-anchor="middle" x="1302.8107" y="-206.7" font-family="Times,serif" font-size="14.00" fill="#000000">input:</text>
<polyline fill="none" stroke="#000000" points="1274.9748,-198.5 1330.6466,-198.5 "/>
<text text-anchor="middle" x="1302.8107" y="-181.9" font-family="Times,serif" font-size="14.00" fill="#000000">output:</text>
<polyline fill="none" stroke="#000000" points="1330.6466,-173.7 1330.6466,-223.3 "/>
<text text-anchor="middle" x="1368.4678" y="-206.7" font-family="Times,serif" font-size="14.00" fill="#000000">(None, 5)</text>
<polyline fill="none" stroke="#000000" points="1330.6466,-198.5 1407.289,-198.5 "/>
<text text-anchor="middle" x="1368.9678" y="-181.9" font-family="Times,serif" font-size="14.00" fill="#000000">(None, 64)</text>
</g>
<!-- 112582735968&#45;&gt;112581135272 -->
<g id="edge14" class="edge">
<title>112582735968&#45;&gt;112581135272</title>
<path fill="none" stroke="#000000" d="M1309.6215,-260.0517C1306.796,-251.6142 1303.5915,-242.045 1300.5656,-233.009"/>
<polygon fill="#000000" stroke="#000000" points="1303.873,-231.863 1297.3787,-223.492 1297.2353,-234.0859 1303.873,-231.863"/>
</g>
<!-- 112581200528 -->
<g id="node16" class="node">
<title>112581200528</title>
<polygon fill="none" stroke="#000000" points="774.7243,-87.1 774.7243,-136.7 1231.2947,-136.7 1231.2947,-87.1 774.7243,-87.1"/>
<text text-anchor="middle" x="861.0494" y="-107.7" font-family="Times,serif" font-size="14.00" fill="#000000">concatenate_2: Concatenate</text>
<polyline fill="none" stroke="#000000" points="947.3745,-87.1 947.3745,-136.7 "/>
<text text-anchor="middle" x="975.2104" y="-120.1" font-family="Times,serif" font-size="14.00" fill="#000000">input:</text>
<polyline fill="none" stroke="#000000" points="947.3745,-111.9 1003.0463,-111.9 "/>
<text text-anchor="middle" x="975.2104" y="-95.3" font-family="Times,serif" font-size="14.00" fill="#000000">output:</text>
<polyline fill="none" stroke="#000000" points="1003.0463,-87.1 1003.0463,-136.7 "/>
<text text-anchor="middle" x="1117.1705" y="-120.1" font-family="Times,serif" font-size="14.00" fill="#000000">[(None, 128), (None, 64), (None, 64)]</text>
<polyline fill="none" stroke="#000000" points="1003.0463,-111.9 1231.2947,-111.9 "/>
<text text-anchor="middle" x="1116.8675" y="-95.3" font-family="Times,serif" font-size="14.00" fill="#000000">(None, 256)</text>
</g>
<!-- 112582601136&#45;&gt;112581200528 -->
<g id="edge15" class="edge">
<title>112582601136&#45;&gt;112581200528</title>
<path fill="none" stroke="#000000" d="M800.3925,-173.6839C835.1515,-163.0849 875.8759,-150.6668 911.6613,-139.7548"/>
<polygon fill="#000000" stroke="#000000" points="913.0703,-142.9843 921.6146,-136.7197 911.0286,-136.2887 913.0703,-142.9843"/>
</g>
<!-- 112582735296&#45;&gt;112581200528 -->
<g id="edge16" class="edge">
<title>112582735296&#45;&gt;112581200528</title>
<path fill="none" stroke="#000000" d="M1003.0095,-173.4517C1003.0095,-165.1937 1003.0095,-155.8517 1003.0095,-146.9864"/>
<polygon fill="#000000" stroke="#000000" points="1006.5096,-146.892 1003.0095,-136.892 999.5096,-146.892 1006.5096,-146.892"/>
</g>
<!-- 112581135272&#45;&gt;112581200528 -->
<g id="edge17" class="edge">
<title>112581135272&#45;&gt;112581200528</title>
<path fill="none" stroke="#000000" d="M1207.0534,-173.6839C1172.0496,-163.0849 1131.0384,-150.6668 1095.001,-139.7548"/>
<polygon fill="#000000" stroke="#000000" points="1095.5628,-136.268 1084.9776,-136.7197 1093.5341,-142.9676 1095.5628,-136.268"/>
</g>
<!-- 112581261464 -->
<g id="node17" class="node">
<title>112581261464</title>
<polygon fill="none" stroke="#000000" points="868.7784,-.5 868.7784,-50.1 1137.2406,-50.1 1137.2406,-.5 868.7784,-.5"/>
<text text-anchor="middle" x="933.3524" y="-21.1" font-family="Times,serif" font-size="14.00" fill="#000000">main_output: Dense</text>
<polyline fill="none" stroke="#000000" points="997.9264,-.5 997.9264,-50.1 "/>
<text text-anchor="middle" x="1025.7623" y="-33.5" font-family="Times,serif" font-size="14.00" fill="#000000">input:</text>
<polyline fill="none" stroke="#000000" points="997.9264,-25.3 1053.5982,-25.3 "/>
<text text-anchor="middle" x="1025.7623" y="-8.7" font-family="Times,serif" font-size="14.00" fill="#000000">output:</text>
<polyline fill="none" stroke="#000000" points="1053.5982,-.5 1053.5982,-50.1 "/>
<text text-anchor="middle" x="1095.4194" y="-33.5" font-family="Times,serif" font-size="14.00" fill="#000000">(None, 256)</text>
<polyline fill="none" stroke="#000000" points="1053.5982,-25.3 1137.2406,-25.3 "/>
<text text-anchor="middle" x="1094.9194" y="-8.7" font-family="Times,serif" font-size="14.00" fill="#000000">(None, 2)</text>
</g>
<!-- 112581200528&#45;&gt;112581261464 -->
<g id="edge18" class="edge">
<title>112581200528&#45;&gt;112581261464</title>
<path fill="none" stroke="#000000" d="M1003.0095,-86.8517C1003.0095,-78.5937 1003.0095,-69.2517 1003.0095,-60.3864"/>
<polygon fill="#000000" stroke="#000000" points="1006.5096,-60.292 1003.0095,-50.292 999.5096,-60.292 1006.5096,-60.292"/>
</g>
</g>
</svg>
