<?xml version="1.0" encoding="UTF-8" standalone="no"?>
<!DOCTYPE svg PUBLIC "-//W3C//DTD SVG 1.1//EN"
 "http://www.w3.org/Graphics/SVG/1.1/DTD/svg11.dtd">
<!-- Generated by graphviz version 2.40.1 (20161225.0304)
 -->
<!-- Title: G Pages: 1 -->
<svg width="930pt" height="405pt"
 viewBox="0.00 0.00 929.85 405.00" xmlns="http://www.w3.org/2000/svg" xmlns:xlink="http://www.w3.org/1999/xlink">
<g id="graph0" class="graph" transform="scale(1 1) rotate(0) translate(4 401)">
<title>G</title>
<polygon fill="#ffffff" stroke="transparent" points="-4,4 -4,-401 925.8465,-401 925.8465,4 -4,4"/>
<!-- 48027956896 -->
<g id="node1" class="node">
<title>48027956896</title>
<polygon fill="none" stroke="#000000" points="8.5666,-346.9 8.5666,-396.5 315.897,-396.5 315.897,-346.9 8.5666,-346.9"/>
<text text-anchor="middle" x="96.0747" y="-367.5" font-family="Times,serif" font-size="14.00" fill="#000000">statement_input: InputLayer</text>
<polyline fill="none" stroke="#000000" points="183.5828,-346.9 183.5828,-396.5 "/>
<text text-anchor="middle" x="211.4187" y="-379.9" font-family="Times,serif" font-size="14.00" fill="#000000">input:</text>
<polyline fill="none" stroke="#000000" points="183.5828,-371.7 239.2546,-371.7 "/>
<text text-anchor="middle" x="211.4187" y="-355.1" font-family="Times,serif" font-size="14.00" fill="#000000">output:</text>
<polyline fill="none" stroke="#000000" points="239.2546,-346.9 239.2546,-396.5 "/>
<text text-anchor="middle" x="277.5758" y="-379.9" font-family="Times,serif" font-size="14.00" fill="#000000">(None, 25)</text>
<polyline fill="none" stroke="#000000" points="239.2546,-371.7 315.897,-371.7 "/>
<text text-anchor="middle" x="277.5758" y="-355.1" font-family="Times,serif" font-size="14.00" fill="#000000">(None, 25)</text>
</g>
<!-- 48030954104 -->
<g id="node2" class="node">
<title>48030954104</title>
<polygon fill="none" stroke="#000000" points="0,-260.3 0,-309.9 324.4636,-309.9 324.4636,-260.3 0,-260.3"/>
<text text-anchor="middle" x="82.0747" y="-280.9" font-family="Times,serif" font-size="14.00" fill="#000000">embedding_1: Embedding</text>
<polyline fill="none" stroke="#000000" points="164.1494,-260.3 164.1494,-309.9 "/>
<text text-anchor="middle" x="191.9853" y="-293.3" font-family="Times,serif" font-size="14.00" fill="#000000">input:</text>
<polyline fill="none" stroke="#000000" points="164.1494,-285.1 219.8212,-285.1 "/>
<text text-anchor="middle" x="191.9853" y="-268.5" font-family="Times,serif" font-size="14.00" fill="#000000">output:</text>
<polyline fill="none" stroke="#000000" points="219.8212,-260.3 219.8212,-309.9 "/>
<text text-anchor="middle" x="272.1424" y="-293.3" font-family="Times,serif" font-size="14.00" fill="#000000">(None, 25)</text>
<polyline fill="none" stroke="#000000" points="219.8212,-285.1 324.4636,-285.1 "/>
<text text-anchor="middle" x="272.1424" y="-268.5" font-family="Times,serif" font-size="14.00" fill="#000000">(None, 25, 100)</text>
</g>
<!-- 48027956896&#45;&gt;48030954104 -->
<g id="edge1" class="edge">
<title>48027956896&#45;&gt;48030954104</title>
<path fill="none" stroke="#000000" d="M162.2318,-346.6517C162.2318,-338.3937 162.2318,-329.0517 162.2318,-320.1864"/>
<polygon fill="#000000" stroke="#000000" points="165.7319,-320.092 162.2318,-310.092 158.7319,-320.092 165.7319,-320.092"/>
</g>
<!-- 48030954160 -->
<g id="node3" class="node">
<title>48030954160</title>
<polygon fill="none" stroke="#000000" points="32.655,-173.7 32.655,-223.3 291.8086,-223.3 291.8086,-173.7 32.655,-173.7"/>
<text text-anchor="middle" x="82.0747" y="-194.3" font-family="Times,serif" font-size="14.00" fill="#000000">lstm_1: LSTM</text>
<polyline fill="none" stroke="#000000" points="131.4944,-173.7 131.4944,-223.3 "/>
<text text-anchor="middle" x="159.3303" y="-206.7" font-family="Times,serif" font-size="14.00" fill="#000000">input:</text>
<polyline fill="none" stroke="#000000" points="131.4944,-198.5 187.1662,-198.5 "/>
<text text-anchor="middle" x="159.3303" y="-181.9" font-family="Times,serif" font-size="14.00" fill="#000000">output:</text>
<polyline fill="none" stroke="#000000" points="187.1662,-173.7 187.1662,-223.3 "/>
<text text-anchor="middle" x="239.4874" y="-206.7" font-family="Times,serif" font-size="14.00" fill="#000000">(None, 25, 100)</text>
<polyline fill="none" stroke="#000000" points="187.1662,-198.5 291.8086,-198.5 "/>
<text text-anchor="middle" x="239.4874" y="-181.9" font-family="Times,serif" font-size="14.00" fill="#000000">(None, 100)</text>
</g>
<!-- 48030954104&#45;&gt;48030954160 -->
<g id="edge2" class="edge">
<title>48030954104&#45;&gt;48030954160</title>
<path fill="none" stroke="#000000" d="M162.2318,-260.0517C162.2318,-251.7937 162.2318,-242.4517 162.2318,-233.5864"/>
<polygon fill="#000000" stroke="#000000" points="165.7319,-233.492 162.2318,-223.492 158.7319,-233.492 165.7319,-233.492"/>
</g>
<!-- 47920622392 -->
<g id="node6" class="node">
<title>47920622392</title>
<polygon fill="none" stroke="#000000" points="236.9466,-87.1 236.9466,-136.7 693.517,-136.7 693.517,-87.1 236.9466,-87.1"/>
<text text-anchor="middle" x="323.2717" y="-107.7" font-family="Times,serif" font-size="14.00" fill="#000000">concatenate_1: Concatenate</text>
<polyline fill="none" stroke="#000000" points="409.5968,-87.1 409.5968,-136.7 "/>
<text text-anchor="middle" x="437.4327" y="-120.1" font-family="Times,serif" font-size="14.00" fill="#000000">input:</text>
<polyline fill="none" stroke="#000000" points="409.5968,-111.9 465.2686,-111.9 "/>
<text text-anchor="middle" x="437.4327" y="-95.3" font-family="Times,serif" font-size="14.00" fill="#000000">output:</text>
<polyline fill="none" stroke="#000000" points="465.2686,-87.1 465.2686,-136.7 "/>
<text text-anchor="middle" x="579.3928" y="-120.1" font-family="Times,serif" font-size="14.00" fill="#000000">[(None, 100), (None, 115), (None, 5)]</text>
<polyline fill="none" stroke="#000000" points="465.2686,-111.9 693.517,-111.9 "/>
<text text-anchor="middle" x="579.0898" y="-95.3" font-family="Times,serif" font-size="14.00" fill="#000000">(None, 220)</text>
</g>
<!-- 48030954160&#45;&gt;47920622392 -->
<g id="edge3" class="edge">
<title>48030954160&#45;&gt;47920622392</title>
<path fill="none" stroke="#000000" d="M249.0594,-173.6839C286.4608,-162.9943 330.336,-150.4544 368.7501,-139.4753"/>
<polygon fill="#000000" stroke="#000000" points="369.7383,-142.8331 378.3915,-136.7197 367.8146,-136.1026 369.7383,-142.8331"/>
</g>
<!-- 48030956008 -->
<g id="node4" class="node">
<title>48030956008</title>
<polygon fill="none" stroke="#000000" points="309.6269,-173.7 309.6269,-223.3 620.8367,-223.3 620.8367,-173.7 309.6269,-173.7"/>
<text text-anchor="middle" x="395.5747" y="-194.3" font-family="Times,serif" font-size="14.00" fill="#000000">metadata_input: InputLayer</text>
<polyline fill="none" stroke="#000000" points="481.5225,-173.7 481.5225,-223.3 "/>
<text text-anchor="middle" x="509.3584" y="-206.7" font-family="Times,serif" font-size="14.00" fill="#000000">input:</text>
<polyline fill="none" stroke="#000000" points="481.5225,-198.5 537.1943,-198.5 "/>
<text text-anchor="middle" x="509.3584" y="-181.9" font-family="Times,serif" font-size="14.00" fill="#000000">output:</text>
<polyline fill="none" stroke="#000000" points="537.1943,-173.7 537.1943,-223.3 "/>
<text text-anchor="middle" x="579.0155" y="-206.7" font-family="Times,serif" font-size="14.00" fill="#000000">(None, 115)</text>
<polyline fill="none" stroke="#000000" points="537.1943,-198.5 620.8367,-198.5 "/>
<text text-anchor="middle" x="579.0155" y="-181.9" font-family="Times,serif" font-size="14.00" fill="#000000">(None, 115)</text>
</g>
<!-- 48030956008&#45;&gt;47920622392 -->
<g id="edge4" class="edge">
<title>48030956008&#45;&gt;47920622392</title>
<path fill="none" stroke="#000000" d="M465.2318,-173.4517C465.2318,-165.1937 465.2318,-155.8517 465.2318,-146.9864"/>
<polygon fill="#000000" stroke="#000000" points="468.7319,-146.892 465.2318,-136.892 461.7319,-146.892 468.7319,-146.892"/>
</g>
<!-- 48030956288 -->
<g id="node5" class="node">
<title>48030956288</title>
<polygon fill="none" stroke="#000000" points="638.6171,-173.7 638.6171,-223.3 921.8465,-223.3 921.8465,-173.7 638.6171,-173.7"/>
<text text-anchor="middle" x="717.5747" y="-194.3" font-family="Times,serif" font-size="14.00" fill="#000000">counts_input: InputLayer</text>
<polyline fill="none" stroke="#000000" points="796.5323,-173.7 796.5323,-223.3 "/>
<text text-anchor="middle" x="824.3682" y="-206.7" font-family="Times,serif" font-size="14.00" fill="#000000">input:</text>
<polyline fill="none" stroke="#000000" points="796.5323,-198.5 852.2041,-198.5 "/>
<text text-anchor="middle" x="824.3682" y="-181.9" font-family="Times,serif" font-size="14.00" fill="#000000">output:</text>
<polyline fill="none" stroke="#000000" points="852.2041,-173.7 852.2041,-223.3 "/>
<text text-anchor="middle" x="887.0253" y="-206.7" font-family="Times,serif" font-size="14.00" fill="#000000">(None, 5)</text>
<polyline fill="none" stroke="#000000" points="852.2041,-198.5 921.8465,-198.5 "/>
<text text-anchor="middle" x="887.0253" y="-181.9" font-family="Times,serif" font-size="14.00" fill="#000000">(None, 5)</text>
</g>
<!-- 48030956288&#45;&gt;47920622392 -->
<g id="edge5" class="edge">
<title>48030956288&#45;&gt;47920622392</title>
<path fill="none" stroke="#000000" d="M689.9654,-173.6839C651.0005,-162.9716 605.2767,-150.4012 565.2808,-139.4055"/>
<polygon fill="#000000" stroke="#000000" points="566.0814,-135.9958 555.5113,-136.7197 564.2258,-142.7454 566.0814,-135.9958"/>
</g>
<!-- 47920699824 -->
<g id="node7" class="node">
<title>47920699824</title>
<polygon fill="none" stroke="#000000" points="331.0007,-.5 331.0007,-50.1 599.4629,-50.1 599.4629,-.5 331.0007,-.5"/>
<text text-anchor="middle" x="395.5747" y="-21.1" font-family="Times,serif" font-size="14.00" fill="#000000">main_output: Dense</text>
<polyline fill="none" stroke="#000000" points="460.1487,-.5 460.1487,-50.1 "/>
<text text-anchor="middle" x="487.9846" y="-33.5" font-family="Times,serif" font-size="14.00" fill="#000000">input:</text>
<polyline fill="none" stroke="#000000" points="460.1487,-25.3 515.8205,-25.3 "/>
<text text-anchor="middle" x="487.9846" y="-8.7" font-family="Times,serif" font-size="14.00" fill="#000000">output:</text>
<polyline fill="none" stroke="#000000" points="515.8205,-.5 515.8205,-50.1 "/>
<text text-anchor="middle" x="557.6417" y="-33.5" font-family="Times,serif" font-size="14.00" fill="#000000">(None, 220)</text>
<polyline fill="none" stroke="#000000" points="515.8205,-25.3 599.4629,-25.3 "/>
<text text-anchor="middle" x="557.1417" y="-8.7" font-family="Times,serif" font-size="14.00" fill="#000000">(None, 2)</text>
</g>
<!-- 47920622392&#45;&gt;47920699824 -->
<g id="edge6" class="edge">
<title>47920622392&#45;&gt;47920699824</title>
<path fill="none" stroke="#000000" d="M465.2318,-86.8517C465.2318,-78.5937 465.2318,-69.2517 465.2318,-60.3864"/>
<polygon fill="#000000" stroke="#000000" points="468.7319,-60.292 465.2318,-50.292 461.7319,-60.292 468.7319,-60.292"/>
</g>
</g>
</svg>
